<?xml version="1.0" standalone="no"?>
<!DOCTYPE svg PUBLIC "-//W3C//DTD SVG 20010904//EN"
 "http://www.w3.org/TR/2001/REC-SVG-20010904/DTD/svg10.dtd">
<svg version="1.0" xmlns="http://www.w3.org/2000/svg"
 width="3135.000000pt" height="2363.000000pt" viewBox="0 0 3135.000000 2363.000000"
 preserveAspectRatio="xMidYMid meet">

<g transform="translate(0.000000,2363.000000) scale(0.100000,-0.100000)"
fill="#000000" stroke="none">
<path d="M25 23488 c-23 -188 -31 -582 -16 -774 67 -835 358 -1572 880 -2229
111 -139 362 -399 506 -524 629 -544 1395 -873 2250 -965 119 -12 48 -14 -852
-15 l-981 -1 -6 -27 c-3 -16 -13 -89 -21 -163 -62 -579 6 -1186 196 -1738 395
-1147 1298 -2066 2434 -2477 238 -86 480 -148 778 -199 l37 -7 0 -7185 0
-7184 6208 3 c6836 3 6257 -2 6867 62 1181 125 2358 435 3435 905 91 39 187
81 213 92 30 13 46 26 43 34 -3 7 -1181 1280 -2618 2828 l-2613 2816 -2392 0
-2393 0 0 5070 0 5070 2359 0 2360 0 178 193 c447 483 5029 5481 5036 5494 9
15 -42 41 -303 150 -1276 534 -2617 835 -4015 903 -139 7 -3162 10 -8881 10
l-8671 0 -18 -142z"/>
<path d="M22979 23233 c-200 -219 -1413 -1541 -2694 -2938 -6807 -7420 -7761
-8461 -7768 -8472 -5 -8 914 -1005 2510 -2725 6692 -7212 8436 -9090 8447
-9094 6 -2 1780 -3 3942 -2 l3931 3 -1725 1870 c-949 1029 -3384 3668 -5412
5865 -2027 2197 -3702 4013 -3722 4035 l-36 41 207 224 c114 124 1444 1566
2957 3205 1512 1639 3849 4173 5193 5630 1344 1458 2467 2674 2495 2703 l50
52 -4005 0 -4006 0 -364 -397z"/>
<path d="M24880 16108 c-1295 -1403 -2379 -2578 -2409 -2610 l-54 -59 36 -117
c216 -704 279 -1422 187 -2154 -35 -275 -92 -544 -177 -825 l-46 -152 54 -59
c294 -323 4764 -5162 4769 -5162 4 0 54 69 112 153 1181 1716 1888 3719 2043
5787 194 2589 -452 5144 -1846 7302 -124 190 -301 448 -308 448 -4 0 -1066
-1148 -2361 -2552z"/>
</g>
</svg>
