<svg width="422" height="525" viewBox="0 0 422 525" fill="none" xmlns="http://www.w3.org/2000/svg">
<path fill-rule="evenodd" clip-rule="evenodd" d="M24 525C10.7452 525 0 514.255 0 501V24C0 10.7452 10.7452 0 24 0H398C411.255 0 422 10.7452 422 24V415C422 428.255 411.255 439 398 439H358C344.745 439 334 449.745 334 463V501C334 514.255 323.255 525 310 525H24ZM2 501V70C2 57.8497 11.8497 48 24 48H98C111.807 48 123 36.8071 123 23C123 11.402 132.402 2 144 2H398C410.15 2 420 11.8497 420 24V415C420 427.15 410.15 437 398 437H358C343.641 437 332 448.641 332 463V501C332 513.15 322.15 523 310 523H24C11.8497 523 2 513.15 2 501ZM132.634 3H24C12.402 3 3 12.402 3 24V58.372C7.09419 50.9937 14.9639 46 24 46H98C110.703 46 121 35.7025 121 23C121 14.4315 125.686 6.95737 132.634 3Z" fill="#BFB3F9"/>
</svg>
