<svg width="298" height="120" viewBox="0 0 298 120" fill="none" xmlns="http://www.w3.org/2000/svg">
<path d="M0 43.5C0 30.2452 10.7452 19.5 24 19.5H278.5C289.27 19.5 298 10.7696 298 0V0V31V95.5C298 108.755 287.255 119.5 274 119.5H24C10.7452 119.5 0 108.755 0 95.5V43.5Z" fill="#F3E249"/>
<path d="M30.66 65.5V50.6H32.62V57.24H40.08V50.6H42.06V65.5H40.08V59.04H32.62V65.5H30.66ZM45.147 65.5V54.72H47.007V65.5H45.147ZM45.147 53V50.6H47.007V53H45.147ZM50.6531 65.5V63.1H52.5931V65.5H50.6531ZM59.9178 65.5V50.6H61.8778V65.5H59.9178ZM65.2913 55.58V54.68C65.7046 54.5733 66.0113 54.38 66.2113 54.1C66.4246 53.8067 66.5513 53.44 66.5913 53H65.6913V50.6H67.6313V52.3C67.6313 53.1667 67.4313 53.8867 67.0313 54.46C66.6446 55.02 66.0646 55.3933 65.2913 55.58ZM70.9478 65.5V54.72H72.7678V56.92L72.5078 56.58C72.7745 55.9 73.2011 55.38 73.7878 55.02C74.3745 54.66 75.0345 54.48 75.7678 54.48C76.6078 54.48 77.3611 54.7133 78.0278 55.18C78.7078 55.6467 79.1745 56.26 79.4278 57.02L78.9078 57.04C79.1878 56.2 79.6611 55.5667 80.3278 55.14C80.9945 54.7 81.7345 54.48 82.5478 54.48C83.2945 54.48 83.9678 54.6533 84.5678 55C85.1811 55.3467 85.6678 55.8267 86.0278 56.44C86.3878 57.0533 86.5678 57.7467 86.5678 58.52V65.5H84.6878V59.12C84.6878 58.52 84.5811 58.0133 84.3678 57.6C84.1545 57.1867 83.8611 56.8667 83.4878 56.64C83.1278 56.4 82.7011 56.28 82.2078 56.28C81.7278 56.28 81.2945 56.4 80.9078 56.64C80.5345 56.8667 80.2345 57.1933 80.0078 57.62C79.7945 58.0333 79.6878 58.5333 79.6878 59.12V65.5H77.8078V59.12C77.8078 58.52 77.7011 58.0133 77.4878 57.6C77.2745 57.1867 76.9811 56.8667 76.6078 56.64C76.2478 56.4 75.8211 56.28 75.3278 56.28C74.8478 56.28 74.4145 56.4 74.0278 56.64C73.6545 56.8667 73.3545 57.1933 73.1278 57.62C72.9145 58.0333 72.8078 58.5333 72.8078 59.12V65.5H70.9478ZM92.8866 65.5V50.6H97.7666C99.2732 50.6 100.587 50.9067 101.707 51.52C102.827 52.1333 103.693 53 104.307 54.12C104.92 55.2267 105.227 56.5333 105.227 58.04C105.227 59.5333 104.92 60.84 104.307 61.96C103.693 63.08 102.827 63.9533 101.707 64.58C100.587 65.1933 99.2732 65.5 97.7666 65.5H92.8866ZM94.8466 63.7H97.7866C98.8932 63.7 99.8466 63.4667 100.647 63C101.46 62.5333 102.087 61.88 102.527 61.04C102.967 60.1867 103.187 59.1867 103.187 58.04C103.187 56.88 102.96 55.88 102.507 55.04C102.067 54.2 101.44 53.5533 100.627 53.1C99.8266 52.6333 98.8799 52.4 97.7866 52.4H94.8466V63.7ZM112.451 65.74C111.411 65.74 110.484 65.4933 109.671 65C108.857 64.5067 108.217 63.8333 107.751 62.98C107.284 62.1133 107.051 61.1467 107.051 60.08C107.051 59 107.277 58.04 107.731 57.2C108.197 56.36 108.824 55.7 109.611 55.22C110.411 54.7267 111.304 54.48 112.291 54.48C113.091 54.48 113.797 54.6267 114.411 54.92C115.037 55.2 115.564 55.5867 115.991 56.08C116.431 56.56 116.764 57.1133 116.991 57.74C117.231 58.3533 117.351 58.9933 117.351 59.66C117.351 59.8067 117.337 59.9733 117.311 60.16C117.297 60.3333 117.277 60.5 117.251 60.66H108.411V59.06H116.171L115.291 59.78C115.411 59.0867 115.344 58.4667 115.091 57.92C114.837 57.3733 114.464 56.94 113.971 56.62C113.477 56.3 112.917 56.14 112.291 56.14C111.664 56.14 111.091 56.3 110.571 56.62C110.051 56.94 109.644 57.4 109.351 58C109.071 58.5867 108.957 59.2867 109.011 60.1C108.957 60.8867 109.077 61.58 109.371 62.18C109.677 62.7667 110.104 63.2267 110.651 63.56C111.211 63.88 111.817 64.04 112.471 64.04C113.191 64.04 113.797 63.8733 114.291 63.54C114.784 63.2067 115.184 62.78 115.491 62.26L117.051 63.06C116.837 63.5533 116.504 64.0067 116.051 64.42C115.611 64.82 115.084 65.14 114.471 65.38C113.871 65.62 113.197 65.74 112.451 65.74ZM124.676 65.74C123.663 65.74 122.749 65.4933 121.936 65C121.136 64.5067 120.503 63.8333 120.036 62.98C119.569 62.1267 119.336 61.1733 119.336 60.12C119.336 59.04 119.569 58.08 120.036 57.24C120.503 56.3867 121.136 55.7133 121.936 55.22C122.749 54.7267 123.663 54.48 124.676 54.48C125.569 54.48 126.363 54.6733 127.056 55.06C127.749 55.4333 128.296 55.94 128.696 56.58L128.396 57.04V50.36H130.276V65.5H128.456V63.2L128.696 63.52C128.323 64.2267 127.776 64.7733 127.056 65.16C126.349 65.5467 125.556 65.74 124.676 65.74ZM124.836 63.94C125.516 63.94 126.123 63.7733 126.656 63.44C127.189 63.1067 127.609 62.6533 127.916 62.08C128.236 61.4933 128.396 60.84 128.396 60.12C128.396 59.3867 128.236 58.7333 127.916 58.16C127.609 57.5733 127.189 57.1133 126.656 56.78C126.123 56.4467 125.516 56.28 124.836 56.28C124.169 56.28 123.563 56.4533 123.016 56.8C122.483 57.1333 122.063 57.5867 121.756 58.16C121.449 58.72 121.296 59.3733 121.296 60.12C121.296 60.84 121.449 61.4933 121.756 62.08C122.063 62.6533 122.483 63.1067 123.016 63.44C123.549 63.7733 124.156 63.94 124.836 63.94ZM138.115 65.74C137.075 65.74 136.148 65.4933 135.335 65C134.522 64.5067 133.882 63.8333 133.415 62.98C132.948 62.1133 132.715 61.1467 132.715 60.08C132.715 59 132.942 58.04 133.395 57.2C133.862 56.36 134.488 55.7 135.275 55.22C136.075 54.7267 136.968 54.48 137.955 54.48C138.755 54.48 139.462 54.6267 140.075 54.92C140.702 55.2 141.228 55.5867 141.655 56.08C142.095 56.56 142.428 57.1133 142.655 57.74C142.895 58.3533 143.015 58.9933 143.015 59.66C143.015 59.8067 143.002 59.9733 142.975 60.16C142.962 60.3333 142.942 60.5 142.915 60.66H134.075V59.06H141.835L140.955 59.78C141.075 59.0867 141.008 58.4667 140.755 57.92C140.502 57.3733 140.128 56.94 139.635 56.62C139.142 56.3 138.582 56.14 137.955 56.14C137.328 56.14 136.755 56.3 136.235 56.62C135.715 56.94 135.308 57.4 135.015 58C134.735 58.5867 134.622 59.2867 134.675 60.1C134.622 60.8867 134.742 61.58 135.035 62.18C135.342 62.7667 135.768 63.2267 136.315 63.56C136.875 63.88 137.482 64.04 138.135 64.04C138.855 64.04 139.462 63.8733 139.955 63.54C140.448 63.2067 140.848 62.78 141.155 62.26L142.715 63.06C142.502 63.5533 142.168 64.0067 141.715 64.42C141.275 64.82 140.748 65.14 140.135 65.38C139.535 65.62 138.862 65.74 138.115 65.74ZM149.117 65.5V50.6H151.077V58.98L150.597 58.78L157.717 50.6H160.177L154.197 57.5L154.297 56.1L160.477 65.5H158.137L153.417 58.42L151.077 61.1V65.5H149.117ZM165.959 65.74C165.186 65.74 164.486 65.56 163.859 65.2C163.246 64.84 162.766 64.34 162.419 63.7C162.086 63.0467 161.919 62.3 161.919 61.46V54.72H163.779V61.26C163.779 61.7933 163.886 62.26 164.099 62.66C164.326 63.06 164.633 63.3733 165.019 63.6C165.419 63.8267 165.873 63.94 166.379 63.94C166.886 63.94 167.333 63.8267 167.719 63.6C168.119 63.3733 168.426 63.0467 168.639 62.62C168.866 62.1933 168.979 61.6867 168.979 61.1V54.72H170.859V65.5H169.039V63.4L169.339 63.58C169.086 64.26 168.653 64.7933 168.039 65.18C167.439 65.5533 166.746 65.74 165.959 65.74ZM173.741 65.5V54.72H175.561V56.7L175.361 56.42C175.614 55.8067 176.001 55.3533 176.521 55.06C177.041 54.7533 177.674 54.6 178.421 54.6H179.081V56.36H178.141C177.381 56.36 176.767 56.6 176.301 57.08C175.834 57.5467 175.601 58.2133 175.601 59.08V65.5H173.741ZM180.733 65.5V54.72H182.553V56.82L182.253 56.64C182.52 55.96 182.946 55.4333 183.533 55.06C184.133 54.6733 184.833 54.48 185.633 54.48C186.406 54.48 187.093 54.6533 187.693 55C188.306 55.3467 188.786 55.8267 189.133 56.44C189.493 57.0533 189.673 57.7467 189.673 58.52V65.5H187.793V59.12C187.793 58.52 187.686 58.0133 187.473 57.6C187.26 57.1867 186.953 56.8667 186.553 56.64C186.166 56.4 185.72 56.28 185.213 56.28C184.706 56.28 184.253 56.4 183.853 56.64C183.466 56.8667 183.16 57.1933 182.933 57.62C182.706 58.0333 182.593 58.5333 182.593 59.12V65.5H180.733ZM192.335 65.5V54.72H194.195V65.5H192.335ZM192.335 53V50.6H194.195V53H192.335ZM200.241 65.74C199.534 65.74 198.907 65.6133 198.361 65.36C197.827 65.0933 197.407 64.7333 197.101 64.28C196.794 63.8133 196.641 63.28 196.641 62.68C196.641 62.1067 196.761 61.5933 197.001 61.14C197.254 60.6733 197.641 60.28 198.161 59.96C198.694 59.64 199.361 59.4133 200.161 59.28L204.161 58.62V60.18L200.581 60.78C199.887 60.9 199.381 61.12 199.061 61.44C198.754 61.76 198.601 62.1533 198.601 62.62C198.601 63.06 198.774 63.4267 199.121 63.72C199.481 64.0133 199.927 64.16 200.461 64.16C201.141 64.16 201.727 64.02 202.221 63.74C202.727 63.4467 203.121 63.0533 203.401 62.56C203.694 62.0667 203.841 61.52 203.841 60.92V58.18C203.841 57.5933 203.621 57.12 203.181 56.76C202.754 56.3867 202.187 56.2 201.481 56.2C200.867 56.2 200.321 56.36 199.841 56.68C199.374 56.9867 199.027 57.4 198.801 57.92L197.181 57.08C197.381 56.5867 197.701 56.1467 198.141 55.76C198.581 55.36 199.094 55.0467 199.681 54.82C200.267 54.5933 200.881 54.48 201.521 54.48C202.347 54.48 203.074 54.64 203.701 54.96C204.327 55.2667 204.814 55.7 205.161 56.26C205.521 56.8067 205.701 57.4467 205.701 58.18V65.5H203.881V63.46L204.221 63.58C203.994 64.0067 203.687 64.38 203.301 64.7C202.914 65.02 202.461 65.2733 201.941 65.46C201.421 65.6467 200.854 65.74 200.241 65.74ZM211.065 65.5L207.365 54.72H209.425L212.365 63.74L211.645 63.72L214.525 54.72H216.285L219.165 63.72L218.445 63.74L221.405 54.72H223.445L219.745 65.5H217.965L215.125 56.5H215.685L212.845 65.5H211.065ZM227.877 65.74C227.171 65.74 226.544 65.6133 225.997 65.36C225.464 65.0933 225.044 64.7333 224.737 64.28C224.431 63.8133 224.277 63.28 224.277 62.68C224.277 62.1067 224.397 61.5933 224.637 61.14C224.891 60.6733 225.277 60.28 225.797 59.96C226.331 59.64 226.997 59.4133 227.797 59.28L231.797 58.62V60.18L228.217 60.78C227.524 60.9 227.017 61.12 226.697 61.44C226.391 61.76 226.237 62.1533 226.237 62.62C226.237 63.06 226.411 63.4267 226.757 63.72C227.117 64.0133 227.564 64.16 228.097 64.16C228.777 64.16 229.364 64.02 229.857 63.74C230.364 63.4467 230.757 63.0533 231.037 62.56C231.331 62.0667 231.477 61.52 231.477 60.92V58.18C231.477 57.5933 231.257 57.12 230.817 56.76C230.391 56.3867 229.824 56.2 229.117 56.2C228.504 56.2 227.957 56.36 227.477 56.68C227.011 56.9867 226.664 57.4 226.437 57.92L224.817 57.08C225.017 56.5867 225.337 56.1467 225.777 55.76C226.217 55.36 226.731 55.0467 227.317 54.82C227.904 54.5933 228.517 54.48 229.157 54.48C229.984 54.48 230.711 54.64 231.337 54.96C231.964 55.2667 232.451 55.7 232.797 56.26C233.157 56.8067 233.337 57.4467 233.337 58.18V65.5H231.517V63.46L231.857 63.58C231.631 64.0067 231.324 64.38 230.937 64.7C230.551 65.02 230.097 65.2733 229.577 65.46C229.057 65.6467 228.491 65.74 227.877 65.74ZM236.221 65.5V54.72H238.041V56.82L237.741 56.64C238.008 55.96 238.435 55.4333 239.021 55.06C239.621 54.6733 240.321 54.48 241.121 54.48C241.895 54.48 242.581 54.6533 243.181 55C243.795 55.3467 244.275 55.8267 244.621 56.44C244.981 57.0533 245.161 57.7467 245.161 58.52V65.5H243.281V59.12C243.281 58.52 243.175 58.0133 242.961 57.6C242.748 57.1867 242.441 56.8667 242.041 56.64C241.655 56.4 241.208 56.28 240.701 56.28C240.195 56.28 239.741 56.4 239.341 56.64C238.955 56.8667 238.648 57.1933 238.421 57.62C238.195 58.0333 238.081 58.5333 238.081 59.12V65.5H236.221ZM33.4 90.5L29.22 75.6H31.28L34.78 88.72H34.3L37.94 75.6H40L43.62 88.72H43.12L46.64 75.6H48.7L44.52 90.5H42.34L38.7 77.44H39.22L35.58 90.5H33.4ZM54.5797 90.74C53.5397 90.74 52.613 90.4933 51.7997 90C50.9864 89.5067 50.3464 88.8333 49.8797 87.98C49.413 87.1133 49.1797 86.1467 49.1797 85.08C49.1797 84 49.4064 83.04 49.8597 82.2C50.3264 81.36 50.953 80.7 51.7397 80.22C52.5397 79.7267 53.433 79.48 54.4197 79.48C55.2197 79.48 55.9264 79.6267 56.5397 79.92C57.1664 80.2 57.693 80.5867 58.1197 81.08C58.5597 81.56 58.893 82.1133 59.1197 82.74C59.3597 83.3533 59.4797 83.9933 59.4797 84.66C59.4797 84.8067 59.4664 84.9733 59.4397 85.16C59.4264 85.3333 59.4064 85.5 59.3797 85.66H50.5397V84.06H58.2997L57.4197 84.78C57.5397 84.0867 57.473 83.4667 57.2197 82.92C56.9664 82.3733 56.593 81.94 56.0997 81.62C55.6064 81.3 55.0464 81.14 54.4197 81.14C53.793 81.14 53.2197 81.3 52.6997 81.62C52.1797 81.94 51.773 82.4 51.4797 83C51.1997 83.5867 51.0864 84.2867 51.1397 85.1C51.0864 85.8867 51.2064 86.58 51.4997 87.18C51.8064 87.7667 52.233 88.2267 52.7797 88.56C53.3397 88.88 53.9464 89.04 54.5997 89.04C55.3197 89.04 55.9264 88.8733 56.4197 88.54C56.913 88.2067 57.313 87.78 57.6197 87.26L59.1797 88.06C58.9664 88.5533 58.633 89.0067 58.1797 89.42C57.7397 89.82 57.213 90.14 56.5997 90.38C55.9997 90.62 55.3264 90.74 54.5797 90.74ZM61.9048 90.5V75.36H63.7648V90.5H61.9048ZM71.6509 90.74C70.5976 90.74 69.6576 90.4933 68.8309 90C68.0176 89.5067 67.3776 88.8333 66.9109 87.98C66.4443 87.1267 66.2109 86.1667 66.2109 85.1C66.2109 84.02 66.4443 83.06 66.9109 82.22C67.3776 81.38 68.0176 80.7133 68.8309 80.22C69.6576 79.7267 70.5976 79.48 71.6509 79.48C72.3576 79.48 73.0176 79.6067 73.6309 79.86C74.2443 80.1133 74.7843 80.4533 75.2509 80.88C75.7176 81.3067 76.0576 81.8067 76.2709 82.38L74.6109 83.18C74.3576 82.62 73.9709 82.1667 73.4509 81.82C72.9309 81.46 72.3309 81.28 71.6509 81.28C70.9976 81.28 70.4043 81.4467 69.8709 81.78C69.3509 82.1133 68.9376 82.5667 68.6309 83.14C68.3243 83.7133 68.1709 84.3733 68.1709 85.12C68.1709 85.84 68.3243 86.4933 68.6309 87.08C68.9376 87.6533 69.3509 88.1067 69.8709 88.44C70.4043 88.7733 70.9976 88.94 71.6509 88.94C72.3309 88.94 72.9309 88.7667 73.4509 88.42C73.9709 88.06 74.3576 87.5867 74.6109 87L76.2709 87.84C76.0576 88.4 75.7176 88.9 75.2509 89.34C74.7843 89.7667 74.2443 90.1067 73.6309 90.36C73.0176 90.6133 72.3576 90.74 71.6509 90.74ZM83.8217 90.74C82.7817 90.74 81.8417 90.5 81.0017 90.02C80.1617 89.5267 79.4951 88.8533 79.0017 88C78.5084 87.1467 78.2617 86.18 78.2617 85.1C78.2617 84.02 78.5017 83.06 78.9817 82.22C79.4751 81.38 80.1417 80.7133 80.9817 80.22C81.8217 79.7267 82.7684 79.48 83.8217 79.48C84.8617 79.48 85.8017 79.7267 86.6417 80.22C87.4817 80.7 88.1417 81.36 88.6217 82.2C89.1151 83.04 89.3617 84.0067 89.3617 85.1C89.3617 86.1933 89.1084 87.1667 88.6017 88.02C88.0951 88.86 87.4217 89.5267 86.5817 90.02C85.7551 90.5 84.8351 90.74 83.8217 90.74ZM83.8217 88.94C84.4884 88.94 85.0884 88.7733 85.6217 88.44C86.1684 88.1067 86.5951 87.6467 86.9017 87.06C87.2217 86.4733 87.3817 85.82 87.3817 85.1C87.3817 84.3667 87.2217 83.72 86.9017 83.16C86.5951 82.5867 86.1684 82.1333 85.6217 81.8C85.0884 81.4533 84.4884 81.28 83.8217 81.28C83.1417 81.28 82.5284 81.4533 81.9817 81.8C81.4484 82.1333 81.0217 82.5867 80.7017 83.16C80.3817 83.72 80.2217 84.3667 80.2217 85.1C80.2217 85.82 80.3817 86.4733 80.7017 87.06C81.0217 87.6467 81.4484 88.1067 81.9817 88.44C82.5284 88.7733 83.1417 88.94 83.8217 88.94ZM91.7877 90.5V79.72H93.6077V81.92L93.3477 81.58C93.6143 80.9 94.041 80.38 94.6277 80.02C95.2143 79.66 95.8743 79.48 96.6077 79.48C97.4477 79.48 98.201 79.7133 98.8677 80.18C99.5477 80.6467 100.014 81.26 100.268 82.02L99.7477 82.04C100.028 81.2 100.501 80.5667 101.168 80.14C101.834 79.7 102.574 79.48 103.388 79.48C104.134 79.48 104.808 79.6533 105.408 80C106.021 80.3467 106.508 80.8267 106.868 81.44C107.228 82.0533 107.408 82.7467 107.408 83.52V90.5H105.528V84.12C105.528 83.52 105.421 83.0133 105.208 82.6C104.994 82.1867 104.701 81.8667 104.328 81.64C103.968 81.4 103.541 81.28 103.048 81.28C102.568 81.28 102.134 81.4 101.748 81.64C101.374 81.8667 101.074 82.1933 100.848 82.62C100.634 83.0333 100.528 83.5333 100.528 84.12V90.5H98.6477V84.12C98.6477 83.52 98.541 83.0133 98.3277 82.6C98.1143 82.1867 97.821 81.8667 97.4477 81.64C97.0877 81.4 96.661 81.28 96.1677 81.28C95.6877 81.28 95.2543 81.4 94.8677 81.64C94.4943 81.8667 94.1943 82.1933 93.9677 82.62C93.7543 83.0333 93.6477 83.5333 93.6477 84.12V90.5H91.7877ZM115.009 90.74C113.969 90.74 113.043 90.4933 112.229 90C111.416 89.5067 110.776 88.8333 110.309 87.98C109.843 87.1133 109.609 86.1467 109.609 85.08C109.609 84 109.836 83.04 110.289 82.2C110.756 81.36 111.383 80.7 112.169 80.22C112.969 79.7267 113.863 79.48 114.849 79.48C115.649 79.48 116.356 79.6267 116.969 79.92C117.596 80.2 118.123 80.5867 118.549 81.08C118.989 81.56 119.323 82.1133 119.549 82.74C119.789 83.3533 119.909 83.9933 119.909 84.66C119.909 84.8067 119.896 84.9733 119.869 85.16C119.856 85.3333 119.836 85.5 119.809 85.66H110.969V84.06H118.729L117.849 84.78C117.969 84.0867 117.903 83.4667 117.649 82.92C117.396 82.3733 117.023 81.94 116.529 81.62C116.036 81.3 115.476 81.14 114.849 81.14C114.223 81.14 113.649 81.3 113.129 81.62C112.609 81.94 112.203 82.4 111.909 83C111.629 83.5867 111.516 84.2867 111.569 85.1C111.516 85.8867 111.636 86.58 111.929 87.18C112.236 87.7667 112.663 88.2267 113.209 88.56C113.769 88.88 114.376 89.04 115.029 89.04C115.749 89.04 116.356 88.8733 116.849 88.54C117.343 88.2067 117.743 87.78 118.049 87.26L119.609 88.06C119.396 88.5533 119.063 89.0067 118.609 89.42C118.169 89.82 117.643 90.14 117.029 90.38C116.429 90.62 115.756 90.74 115.009 90.74ZM130.172 90.62C129.118 90.62 128.305 90.32 127.732 89.72C127.172 89.12 126.892 88.2733 126.892 87.18V81.5H124.932V79.72H125.332C125.812 79.72 126.192 79.5733 126.472 79.28C126.752 78.9867 126.892 78.6 126.892 78.12V77.24H128.752V79.72H131.172V81.5H128.752V87.12C128.752 87.48 128.805 87.7933 128.912 88.06C129.032 88.3267 129.225 88.54 129.492 88.7C129.758 88.8467 130.112 88.92 130.552 88.92C130.645 88.92 130.758 88.9133 130.892 88.9C131.038 88.8867 131.172 88.8733 131.292 88.86V90.5C131.118 90.54 130.925 90.5667 130.712 90.58C130.498 90.6067 130.318 90.62 130.172 90.62ZM138.548 90.74C137.508 90.74 136.568 90.5 135.728 90.02C134.888 89.5267 134.222 88.8533 133.728 88C133.235 87.1467 132.988 86.18 132.988 85.1C132.988 84.02 133.228 83.06 133.708 82.22C134.202 81.38 134.868 80.7133 135.708 80.22C136.548 79.7267 137.495 79.48 138.548 79.48C139.588 79.48 140.528 79.7267 141.368 80.22C142.208 80.7 142.868 81.36 143.348 82.2C143.842 83.04 144.088 84.0067 144.088 85.1C144.088 86.1933 143.835 87.1667 143.328 88.02C142.822 88.86 142.148 89.5267 141.308 90.02C140.482 90.5 139.562 90.74 138.548 90.74ZM138.548 88.94C139.215 88.94 139.815 88.7733 140.348 88.44C140.895 88.1067 141.322 87.6467 141.628 87.06C141.948 86.4733 142.108 85.82 142.108 85.1C142.108 84.3667 141.948 83.72 141.628 83.16C141.322 82.5867 140.895 82.1333 140.348 81.8C139.815 81.4533 139.215 81.28 138.548 81.28C137.868 81.28 137.255 81.4533 136.708 81.8C136.175 82.1333 135.748 82.5867 135.428 83.16C135.108 83.72 134.948 84.3667 134.948 85.1C134.948 85.82 135.108 86.4733 135.428 87.06C135.748 87.6467 136.175 88.1067 136.708 88.44C137.255 88.7733 137.868 88.94 138.548 88.94ZM149.971 90.5V79.72H151.791V81.92L151.531 81.58C151.798 80.9 152.225 80.38 152.811 80.02C153.398 79.66 154.058 79.48 154.791 79.48C155.631 79.48 156.385 79.7133 157.051 80.18C157.731 80.6467 158.198 81.26 158.451 82.02L157.931 82.04C158.211 81.2 158.685 80.5667 159.351 80.14C160.018 79.7 160.758 79.48 161.571 79.48C162.318 79.48 162.991 79.6533 163.591 80C164.205 80.3467 164.691 80.8267 165.051 81.44C165.411 82.0533 165.591 82.7467 165.591 83.52V90.5H163.711V84.12C163.711 83.52 163.605 83.0133 163.391 82.6C163.178 82.1867 162.885 81.8667 162.511 81.64C162.151 81.4 161.725 81.28 161.231 81.28C160.751 81.28 160.318 81.4 159.931 81.64C159.558 81.8667 159.258 82.1933 159.031 82.62C158.818 83.0333 158.711 83.5333 158.711 84.12V90.5H156.831V84.12C156.831 83.52 156.725 83.0133 156.511 82.6C156.298 82.1867 156.005 81.8667 155.631 81.64C155.271 81.4 154.845 81.28 154.351 81.28C153.871 81.28 153.438 81.4 153.051 81.64C152.678 81.8667 152.378 82.1933 152.151 82.62C151.938 83.0333 151.831 83.5333 151.831 84.12V90.5H149.971ZM168.618 94.9C168.378 94.9 168.138 94.88 167.898 94.84C167.658 94.8133 167.431 94.7533 167.218 94.66V93C167.364 93.0133 167.544 93.04 167.758 93.08C167.984 93.12 168.204 93.14 168.418 93.14C169.044 93.14 169.518 93 169.838 92.72C170.171 92.44 170.484 91.9667 170.778 91.3L171.458 89.68L171.418 91.3L166.818 79.72H168.838L172.418 88.92H171.818L175.378 79.72H177.438L172.578 91.78C172.351 92.3533 172.058 92.88 171.698 93.36C171.351 93.84 170.924 94.2133 170.418 94.48C169.911 94.76 169.311 94.9 168.618 94.9ZM182.549 94.5V79.72H184.369V82.04L184.129 81.58C184.529 80.94 185.076 80.4333 185.769 80.06C186.463 79.6733 187.256 79.48 188.149 79.48C189.163 79.48 190.069 79.7267 190.869 80.22C191.683 80.7133 192.323 81.3867 192.789 82.24C193.256 83.08 193.489 84.04 193.489 85.12C193.489 86.1733 193.256 87.1267 192.789 87.98C192.323 88.8333 191.683 89.5067 190.869 90C190.069 90.4933 189.156 90.74 188.129 90.74C187.263 90.74 186.469 90.5467 185.749 90.16C185.043 89.7733 184.496 89.2267 184.109 88.52L184.409 88.2V94.5H182.549ZM187.989 88.94C188.669 88.94 189.276 88.7733 189.809 88.44C190.343 88.1067 190.756 87.6533 191.049 87.08C191.356 86.4933 191.509 85.84 191.509 85.12C191.509 84.3733 191.356 83.72 191.049 83.16C190.756 82.5867 190.343 82.1333 189.809 81.8C189.276 81.4533 188.669 81.28 187.989 81.28C187.309 81.28 186.696 81.4467 186.149 81.78C185.616 82.1133 185.189 82.5733 184.869 83.16C184.563 83.7333 184.409 84.3867 184.409 85.12C184.409 85.84 184.563 86.4933 184.869 87.08C185.189 87.6533 185.616 88.1067 186.149 88.44C186.696 88.7733 187.309 88.94 187.989 88.94ZM201.048 90.74C200.008 90.74 199.068 90.5 198.228 90.02C197.388 89.5267 196.722 88.8533 196.228 88C195.735 87.1467 195.488 86.18 195.488 85.1C195.488 84.02 195.728 83.06 196.208 82.22C196.702 81.38 197.368 80.7133 198.208 80.22C199.048 79.7267 199.995 79.48 201.048 79.48C202.088 79.48 203.028 79.7267 203.868 80.22C204.708 80.7 205.368 81.36 205.848 82.2C206.342 83.04 206.588 84.0067 206.588 85.1C206.588 86.1933 206.335 87.1667 205.828 88.02C205.322 88.86 204.648 89.5267 203.808 90.02C202.982 90.5 202.062 90.74 201.048 90.74ZM201.048 88.94C201.715 88.94 202.315 88.7733 202.848 88.44C203.395 88.1067 203.822 87.6467 204.128 87.06C204.448 86.4733 204.608 85.82 204.608 85.1C204.608 84.3667 204.448 83.72 204.128 83.16C203.822 82.5867 203.395 82.1333 202.848 81.8C202.315 81.4533 201.715 81.28 201.048 81.28C200.368 81.28 199.755 81.4533 199.208 81.8C198.675 82.1333 198.248 82.5867 197.928 83.16C197.608 83.72 197.448 84.3667 197.448 85.1C197.448 85.82 197.608 86.4733 197.928 87.06C198.248 87.6467 198.675 88.1067 199.208 88.44C199.755 88.7733 200.368 88.94 201.048 88.94ZM209.014 90.5V79.72H210.834V81.7L210.634 81.42C210.888 80.8067 211.274 80.3533 211.794 80.06C212.314 79.7533 212.948 79.6 213.694 79.6H214.354V81.36H213.414C212.654 81.36 212.041 81.6 211.574 82.08C211.108 82.5467 210.874 83.2133 210.874 84.08V90.5H209.014ZM220.484 90.62C219.431 90.62 218.617 90.32 218.044 89.72C217.484 89.12 217.204 88.2733 217.204 87.18V81.5H215.244V79.72H215.644C216.124 79.72 216.504 79.5733 216.784 79.28C217.064 78.9867 217.204 78.6 217.204 78.12V77.24H219.064V79.72H221.484V81.5H219.064V87.12C219.064 87.48 219.117 87.7933 219.224 88.06C219.344 88.3267 219.537 88.54 219.804 88.7C220.071 88.8467 220.424 88.92 220.864 88.92C220.957 88.92 221.071 88.9133 221.204 88.9C221.351 88.8867 221.484 88.8733 221.604 88.86V90.5C221.431 90.54 221.237 90.5667 221.024 90.58C220.811 90.6067 220.631 90.62 220.484 90.62ZM225.174 90.5V81.5H223.114V79.72H225.174V78.96C225.174 78.1867 225.34 77.5333 225.674 77C226.02 76.4667 226.474 76.06 227.034 75.78C227.607 75.5 228.24 75.36 228.934 75.36C229.08 75.36 229.24 75.3733 229.414 75.4C229.6 75.4133 229.754 75.4333 229.874 75.46V77.12C229.767 77.0933 229.64 77.08 229.494 77.08C229.347 77.0667 229.234 77.06 229.154 77.06C228.54 77.06 228.034 77.2067 227.634 77.5C227.247 77.7933 227.054 78.28 227.054 78.96V79.72H229.614V81.5H227.054V90.5H225.174ZM236.595 90.74C235.555 90.74 234.615 90.5 233.775 90.02C232.935 89.5267 232.268 88.8533 231.775 88C231.282 87.1467 231.035 86.18 231.035 85.1C231.035 84.02 231.275 83.06 231.755 82.22C232.248 81.38 232.915 80.7133 233.755 80.22C234.595 79.7267 235.542 79.48 236.595 79.48C237.635 79.48 238.575 79.7267 239.415 80.22C240.255 80.7 240.915 81.36 241.395 82.2C241.888 83.04 242.135 84.0067 242.135 85.1C242.135 86.1933 241.882 87.1667 241.375 88.02C240.868 88.86 240.195 89.5267 239.355 90.02C238.528 90.5 237.608 90.74 236.595 90.74ZM236.595 88.94C237.262 88.94 237.862 88.7733 238.395 88.44C238.942 88.1067 239.368 87.6467 239.675 87.06C239.995 86.4733 240.155 85.82 240.155 85.1C240.155 84.3667 239.995 83.72 239.675 83.16C239.368 82.5867 238.942 82.1333 238.395 81.8C237.862 81.4533 237.262 81.28 236.595 81.28C235.915 81.28 235.302 81.4533 234.755 81.8C234.222 82.1333 233.795 82.5867 233.475 83.16C233.155 83.72 232.995 84.3667 232.995 85.1C232.995 85.82 233.155 86.4733 233.475 87.06C233.795 87.6467 234.222 88.1067 234.755 88.44C235.302 88.7733 235.915 88.94 236.595 88.94ZM244.561 90.5V75.36H246.421V90.5H244.561ZM249.307 90.5V79.72H251.167V90.5H249.307ZM249.307 78V75.6H251.167V78H249.307ZM259.173 90.74C258.133 90.74 257.193 90.5 256.353 90.02C255.513 89.5267 254.847 88.8533 254.353 88C253.86 87.1467 253.613 86.18 253.613 85.1C253.613 84.02 253.853 83.06 254.333 82.22C254.827 81.38 255.493 80.7133 256.333 80.22C257.173 79.7267 258.12 79.48 259.173 79.48C260.213 79.48 261.153 79.7267 261.993 80.22C262.833 80.7 263.493 81.36 263.973 82.2C264.467 83.04 264.713 84.0067 264.713 85.1C264.713 86.1933 264.46 87.1667 263.953 88.02C263.447 88.86 262.773 89.5267 261.933 90.02C261.107 90.5 260.187 90.74 259.173 90.74ZM259.173 88.94C259.84 88.94 260.44 88.7733 260.973 88.44C261.52 88.1067 261.947 87.6467 262.253 87.06C262.573 86.4733 262.733 85.82 262.733 85.1C262.733 84.3667 262.573 83.72 262.253 83.16C261.947 82.5867 261.52 82.1333 260.973 81.8C260.44 81.4533 259.84 81.28 259.173 81.28C258.493 81.28 257.88 81.4533 257.333 81.8C256.8 82.1333 256.373 82.5867 256.053 83.16C255.733 83.72 255.573 84.3667 255.573 85.1C255.573 85.82 255.733 86.4733 256.053 87.06C256.373 87.6467 256.8 88.1067 257.333 88.44C257.88 88.7733 258.493 88.94 259.173 88.94Z" fill="black"/>
</svg>
