<svg width="1" height="1" viewBox="0 0 1 1" fill="none" xmlns="http://www.w3.org/2000/svg">
<path fill-rule="evenodd" clip-rule="evenodd" d="M0 0.0457143C0 0.020467 0.0254625 0 0.056872 0H0.943128C0.974538 0 1 0.020467 1 0.0457143V0.790476C1 0.815723 0.974538 0.83619 0.943128 0.83619H0.848341C0.816932 0.83619 0.791469 0.856657 0.791469 0.881905V0.954286C0.791469 0.979533 0.766007 1 0.734597 1H0.056872C0.0254625 1 0 0.979533 0 0.954286V0.0457143ZM0.00710901 0.111185C0.0168109 0.0971309 0.0354595 0.087619 0.056872 0.087619H0.232227C0.262328 0.087619 0.28673 0.0680049 0.28673 0.0438095C0.28673 0.0274886 0.297833 0.0132521 0.314299 0.00571429H0.056872C0.0293887 0.00571429 0.00710901 0.0236229 0.00710901 0.0457143V0.111185Z" fill="white"/>
</svg>
